HIERARCHY
ROOT RootJoint
{
    OFFSET   0.000000   0.000000   0.000000
    CHANNELS 6 Xposition Yposition Zposition Xrotation Yrotation Zrotation
    JOINT pelvis_lowerback
    {
        OFFSET   0.000000   0.093605   0.000000
        CHANNELS 3 Xrotation Yrotation Zrotation
        JOINT lowerback_torso
        {
            OFFSET   0.000000   0.100000   0.000000
            CHANNELS 3 Xrotation Yrotation Zrotation
            JOINT torso_head
            {
                OFFSET   0.000000   0.282350   0.000000
                CHANNELS 3 Xrotation Yrotation Zrotation
                End Site
                {
                    OFFSET   0.000000   0.192650   0.000000
                }
            }
            JOINT rTorso_Clavicle
            {
                OFFSET  -0.001000   0.157500   0.000000
                CHANNELS 3 Xrotation Yrotation Zrotation
                JOINT rShoulder
                {
                    OFFSET  -0.117647   0.000000   0.000000
                    CHANNELS 3 Xrotation Yrotation Zrotation
                    JOINT rElbow
                    {
                        OFFSET  -0.245000   0.000000   0.000000
                        CHANNELS 3 Xrotation Yrotation Zrotation
                        JOINT rWrist
                        {
                            OFFSET  -0.240000   0.000000   0.000000
                            CHANNELS 3 Xrotation Yrotation Zrotation
                            End Site
                            {
                                OFFSET  -0.116353  -0.002500   0.000000
                            }
                        }
                    }
                }
            }
            JOINT lTorso_Clavicle
            {
                OFFSET   0.001000   0.157500   0.000000
                CHANNELS 3 Xrotation Yrotation Zrotation
                JOINT lShoulder
                {
                    OFFSET   0.117647   0.000000   0.000000
                    CHANNELS 3 Xrotation Yrotation Zrotation
                    JOINT lElbow
                    {
                        OFFSET   0.245000   0.000000   0.000000
                        CHANNELS 3 Xrotation Yrotation Zrotation
                        JOINT lWrist
                        {
                            OFFSET   0.240000   0.000000   0.000000
                            CHANNELS 3 Xrotation Yrotation Zrotation
                            End Site
                            {
                                OFFSET   0.116353  -0.002500   0.000000
                            }
                        }
                    }
                }
            }
        }
    }
    JOINT rHip
    {
        OFFSET  -0.100000  -0.051395   0.000000
        CHANNELS 3 Xrotation Yrotation Zrotation
        JOINT rKnee
        {
            OFFSET   0.000000  -0.410000   0.000000
            CHANNELS 3 Xrotation Yrotation Zrotation
            JOINT rAnkle
            {
                OFFSET   0.000000  -0.390000   0.000000
                CHANNELS 3 Xrotation Yrotation Zrotation
                JOINT rToeJoint
                {
                    OFFSET   0.000000  -0.050000   0.130000
                    CHANNELS 3 Xrotation Yrotation Zrotation
                    End Site
                    {
                        OFFSET  -0.010000   0.002000   0.060000
                    }
                }
            }
        }
    }
    JOINT lHip
    {
        OFFSET   0.100000  -0.051395   0.000000
        CHANNELS 3 Xrotation Yrotation Zrotation
        JOINT lKnee
        {
            OFFSET   0.000000  -0.410000   0.000000
            CHANNELS 3 Xrotation Yrotation Zrotation
            JOINT lAnkle
            {
                OFFSET   0.000000  -0.390000   0.000000
                CHANNELS 3 Xrotation Yrotation Zrotation
                JOINT lToeJoint
                {
                    OFFSET   0.000000  -0.050000   0.130000
                    CHANNELS 3 Xrotation Yrotation Zrotation
                    End Site
                    {
                        OFFSET   0.010000   0.002000   0.060000
                    }
                }
            }
        }
    }
}
MOTION
Frames: 11
Frame Time:   0.008333
 -2.344982   0.895244   4.062424  21.453115   4.719921  -5.923492  41.769958  -1.200875  -3.689495   6.383637   0.422168  -5.183626  -0.625043  -0.470090  -5.473508  -6.727045  27.905367   2.154169 -25.652548  19.020485  34.697476  -0.070296  77.330803   0.047845  -1.832911  -0.347591 -18.007763  -3.560061 -21.688739  -1.800942 -10.175262  -7.635377 -32.314980   0.012035 -65.703733   0.012374  -1.492989  -2.524373  19.017860 -27.419063  -4.090212  -8.602751  26.807501   0.001367   0.001071  -8.314208  -2.387101   5.981243 -11.721860   0.000898  -0.001896 -42.521275  -2.539060   3.131647  28.205860   0.000832   0.001776  -6.781884   5.333045   2.958776  -0.668576   0.000080  -0.000012
 -2.345286   0.898220   4.068711  19.976421   4.955887  -5.574793  41.162784  -1.073813  -3.737237   6.362109   0.522934  -5.105473  -0.157905  -0.447164  -5.361469  -6.278971  27.277465   1.785924 -25.200550  19.306135  34.736153  -0.069913  77.753934   0.046938  -1.965785  -0.355998 -18.032424  -2.926196 -20.986984  -1.556713  -9.302186  -7.779599 -33.030176   0.015227 -65.291878   0.014522  -1.640840  -2.416062  18.976187 -25.051912  -4.250025  -8.711995  25.712191   0.001823   0.000980  -8.114212  -2.483351   5.747470 -10.747095   0.002207  -0.002256 -39.920738  -2.288354   3.011845  27.076836   0.000653   0.000221  -6.861663   5.211294   3.126813  -0.568729  -0.000089  -0.000007
 -2.345554   0.900970   4.075005  18.582389   5.170494  -5.240531  40.531863  -0.925849  -3.760485   6.328064   0.628202  -5.017233   0.290854  -0.424067  -5.248840  -5.863265  26.705263   1.421754 -24.773599  19.592235  34.767314  -0.069102  78.152294   0.046167  -2.085268  -0.349332 -17.987152  -2.326778 -20.342418  -1.335174  -8.478904  -7.941545 -33.713603   0.017338 -64.916389   0.015909  -1.767464  -2.348593  18.861253 -22.831470  -4.401695  -8.788977  24.637339   0.002314   0.000750  -7.931318  -2.574653   5.529064  -9.854857   0.002808  -0.002371 -37.417843  -2.049448   2.896616  25.955793   0.000541  -0.001071  -6.924082   5.084008   3.282813  -0.473569  -0.000210  -0.000004
 -2.345783   0.903437   4.081265  17.262031   5.363330  -4.917737  39.900175  -0.772681  -3.763857   6.268000   0.738646  -4.925377   0.707649  -0.400830  -5.140756  -5.486762  26.180202   1.083591 -24.379492  19.869781  34.796038  -0.068419  78.528784   0.045943  -2.192492  -0.319814 -17.915778  -1.769472 -19.742310  -1.139412  -7.710672  -8.106076 -34.355797   0.018817 -64.570017   0.016889  -1.881010  -2.306309  18.723284 -20.767301  -4.545127  -8.843152  23.629288   0.002776   0.000519  -7.761671  -2.660295   5.325600  -9.039307   0.002961  -0.002381 -35.025702  -1.828577   2.782149  24.885371   0.000492  -0.001998  -6.991461   4.962311   3.428747  -0.386069  -0.000289  -0.000001
 -2.345982   0.905610   4.087463  16.009509   5.541176  -4.603336  39.279092  -0.621244  -3.751742   6.186110   0.849879  -4.830464   1.093162  -0.377796  -5.038051  -5.146345  25.695717   0.772054 -24.016352  20.135406  34.821876  -0.067710  78.883660   0.046003  -2.289073  -0.271417 -17.842394  -1.254613 -19.182911  -0.963721  -6.996608  -8.269894 -34.954669   0.019779 -64.249139   0.017515  -1.985285  -2.279451  18.587625 -18.852691  -4.679634  -8.881559  22.688391   0.003179   0.000280  -7.603820  -2.740699   5.136013  -8.293041   0.002827  -0.002296 -32.747299  -1.626063   2.664120  23.880686   0.000480  -0.002632  -7.070972   4.845027   3.563421  -0.305760  -0.000336   0.000002
 -2.346162   0.907496   4.093568  14.821111   5.709809  -4.294686  38.676701  -0.475873  -3.727978   6.088539   0.958106  -4.733402   1.449877  -0.355166  -4.940961  -4.837993  25.246846   0.485420 -23.681304  20.387533  34.844485  -0.066780  79.217401   0.046068  -2.376806  -0.209549 -17.775016  -0.780811 -18.662134  -0.803888  -6.334521  -8.431745 -35.510708   0.020279 -63.951532   0.017809  -2.081702  -2.264420  18.463541 -17.080673  -4.804517  -8.908690  21.809145   0.003519   0.000021  -7.456835  -2.816189   4.959315  -7.609628   0.002513  -0.002122 -30.582377  -1.441835   2.539559  22.945887   0.000487  -0.003047  -7.164147   4.730374   3.686361  -0.232056  -0.000359   0.000003
 -2.346334   0.909114   4.099556  13.693747   5.873413  -3.989741  38.099495  -0.339414  -3.695925   5.981540   1.060613  -4.635531   1.780356  -0.333077  -4.849551  -4.557827  24.829874   0.221924 -23.371534  20.625540  34.863994  -0.065482  79.530714   0.045926  -2.457196  -0.138611 -17.715722  -0.345838 -18.178273  -0.657383  -5.721614  -8.590939 -36.025819   0.020363 -63.675413   0.017791  -2.170937  -2.259739  18.353960 -15.444576  -4.919412  -8.927155  20.985895   0.003801  -0.000262  -7.319947  -2.887041   4.794605  -6.983468   0.002092  -0.001875 -28.528919  -1.275770   2.406972  22.080462   0.000503  -0.003300  -7.270240   4.616949   3.797685  -0.164414  -0.000365   0.000004
 -2.346637   0.910463   4.104785  12.853275   6.072465  -3.770073  37.483395  -0.164028  -3.594085   5.797188   1.118300  -4.517284   2.010382  -0.334711  -4.713151  -4.219738  24.509158  -0.162682 -23.138354  20.947268  34.781676  -0.049568  79.426010   0.034991  -2.424520   0.153020 -17.867192   0.006652 -17.763879  -0.536016  -5.284800  -8.818511 -36.508416   0.019958 -63.437515   0.017454  -2.246540  -2.208642  18.326195 -14.262328  -5.024463  -8.879168  20.299996   0.003956  -0.000844  -7.189408  -3.111641   4.613436  -6.357169   0.001757  -0.002138 -26.988006  -1.168257   2.328931  21.316524   0.000653  -0.003740  -7.307869   4.416789   3.801085   0.011295  -0.000364  -0.000046
 -2.347012   0.911490   4.109636  12.069146   6.303477  -3.554403  36.976513  -0.013621  -3.487713   5.625220   1.159189  -4.396460   2.218210  -0.335379  -4.578869  -3.928932  24.245042  -0.539433 -22.932877  21.256321  34.684798  -0.036799  79.299103   0.026336  -2.423860   0.310589 -18.016938   0.291798 -17.427522  -0.418471  -4.916721  -9.067310 -36.945639   0.018900 -63.229289   0.016534  -2.299431  -2.223469  18.357104 -13.213450  -5.115593  -8.827725  19.646529   0.004054  -0.001524  -7.069144  -3.322934   4.444599  -5.788199   0.001324  -0.002003 -25.624335  -1.074032   2.257840  20.576869   0.000862  -0.004304  -7.344029   4.228783   3.803693   0.170298  -0.000372  -0.000004
 -2.347361   0.912200   4.114196  11.320840   6.508206  -3.353542  36.557321   0.126811  -3.383078   5.489735   1.195931  -4.287127   2.415850  -0.334438  -4.454414  -3.669542  24.020935  -0.889254 -22.748918  21.556226  34.593576  -0.027159  79.178480   0.019808  -2.429195   0.439112 -18.147368   0.537002 -17.141903  -0.314470  -4.593097  -9.320414 -37.350547   0.017388 -63.042305   0.015218  -2.334914  -2.285388  18.409788 -12.251971  -5.219789  -8.816406  19.071379   0.003831  -0.001696  -6.999964  -3.569876   4.276235  -5.745949   0.001071  -0.001654 -24.391703  -0.988674   2.214553  19.868635   0.001103  -0.004630  -7.379074   4.053961   3.806338   0.311575  -0.000380   0.000032
 -2.347678   0.912723   4.118542  10.640039   6.679323  -3.161436  36.196280   0.253472  -3.295430   5.386733   1.227422  -4.192641   2.602178  -0.332768  -4.338624  -3.427768  23.824804  -1.201907 -22.577957  21.842956  34.515937  -0.020053  79.067340   0.014982  -2.431303   0.570475 -18.258810   0.756325 -16.892266  -0.230271  -4.301069  -9.569261 -37.730045   0.015613 -62.870460   0.013698  -2.360198  -2.370804  18.464003 -11.386221  -5.309042  -8.837766  18.522270   0.003462  -0.001687  -6.937234  -3.797661   4.120259  -5.720381   0.000869  -0.001354 -23.192170  -0.876928   2.144133  19.463341   0.000980  -0.004346  -7.312082   3.901665   3.788699   0.409784  -0.000335   0.000039
